<?xml version="1.0" encoding="UTF-8" standalone="no"?>
<!DOCTYPE svg PUBLIC "-//W3C//DTD SVG 1.1//EN" "http://www.w3.org/Graphics/SVG/1.1/DTD/svg11.dtd">
<svg version="1.1" xmlns="http://www.w3.org/2000/svg" xmlns:xlink="http://www.w3.org/1999/xlink" preserveAspectRatio="xMidYMid meet" viewBox="0 0 640 640" width="640" height="640"><defs><path d="M564.01 83.5C569.54 83.5 574.01 87.98 574.01 93.5C574.01 181.14 574.01 434.04 574.01 521.68C574.01 527.2 569.54 531.68 564.01 531.68C466.45 531.68 183.77 531.68 86.2 531.68C80.68 531.68 76.2 527.2 76.2 521.68C76.2 434.04 76.2 181.14 76.2 93.5C76.2 87.98 80.68 83.5 86.2 83.5C183.77 83.5 466.45 83.5 564.01 83.5Z" id="d1IaccAkeQ"></path><path d="M452.48 354.63C452.48 372.36 395.41 386.75 325.11 386.75C254.81 386.75 197.74 372.36 197.74 354.63C197.74 336.91 254.81 322.52 325.11 322.52C395.41 322.52 452.48 336.91 452.48 354.63Z" id="cq74CINwS"></path><path d="M333.09 371.82C333.09 389.55 276.02 403.94 205.72 403.94C135.42 403.94 78.35 389.55 78.35 371.82C78.35 354.09 135.42 339.7 205.72 339.7C276.02 339.7 333.09 354.09 333.09 371.82Z" id="b1Ii07ZGRC"></path><path d="M549.15 373.88C549.15 391.61 492.08 406 421.78 406C351.48 406 294.41 391.61 294.41 373.88C294.41 356.16 351.48 341.77 421.78 341.77C492.08 341.77 549.15 356.16 549.15 373.88Z" id="a2GmgBR8Fo"></path><path d="M564.01 364.53C569.54 364.53 574.01 369 574.01 374.53C574.01 405.96 574.01 490.25 574.01 521.68C574.01 527.2 569.54 531.68 564.01 531.68C466.45 531.68 183.77 531.68 86.2 531.68C80.68 531.68 76.2 527.2 76.2 521.68C76.2 490.25 76.2 405.96 76.2 374.53C76.2 369 80.68 364.53 86.2 364.53C183.77 364.53 466.45 364.53 564.01 364.53Z" id="em2Hp5ctm"></path><path d="M183.15 335.06L184.58 335.31L185.96 335.64L187.29 336.06L188.55 336.56L189.75 337.14L190.88 337.79L191.92 338.51L192.88 339.29L193.75 340.13L194.52 341.02L195.19 341.97L195.75 342.96L196.2 343.99L196.53 345.06L196.54 345.12L197.9 345.51L199.22 345.98L200.46 346.53L201.61 347.14L202.68 347.82L203.64 348.56L204.5 349.35L205.24 350.19L205.87 351.07L206.37 352L206.73 352.96L206.96 353.95L207.03 354.97L206.96 355.99L206.73 356.98L206.37 357.95L205.87 358.87L205.24 359.76L204.5 360.59L203.64 361.38L202.68 362.12L201.61 362.8L200.46 363.41L199.22 363.96L197.9 364.43L196.52 364.83L195.07 365.15L193.56 365.38L192 365.52L190.4 365.57L188.8 365.52L187.24 365.38L185.73 365.15L184.28 364.83L182.89 364.43L181.57 363.96L181.13 363.76L180.25 364.57L179.25 365.34L178.15 366.04L176.98 366.66L175.74 367.2L174.43 367.65L173.06 368.02L171.63 368.28L170.16 368.44L168.65 368.5L167.13 368.44L165.66 368.28L164.23 368.02L162.86 367.65L161.55 367.2L160.31 366.66L159.14 366.04L158.04 365.34L157.04 364.57L156.13 363.73L155.32 362.83L154.62 361.88L154.02 360.87L153.55 359.82L153.21 358.72L153 357.59L152.92 356.43L153 355.27L153.21 354.14L153.55 353.05L154.02 352L154.62 350.99L155.32 350.03L156.13 349.13L157.04 348.3L158.04 347.53L159.14 346.83L160.31 346.21L161.55 345.67L162.86 345.21L163.83 344.96L164.12 343.99L164.57 342.96L165.13 341.97L165.8 341.02L166.57 340.13L167.44 339.29L168.4 338.51L169.45 337.79L170.57 337.14L171.77 336.56L173.03 336.06L174.36 335.64L175.74 335.31L177.17 335.06L178.65 334.91L180.16 334.86L181.67 334.91L183.15 335.06Z" id="a1tJ2teZYq"></path><path d="M185.04 395.72L179.21 401.61L174.51 395.72L159.87 395.72L171.57 392.7L171.57 392.03L171.45 391.88L171.57 391.88L171.57 363.97L171.88 363.97L173.76 351.68L180.34 361.92L189.12 358.26L189.12 392.81L200.09 395.72L185.04 395.72Z" id="f2E2j99nbX"></path><path d="M140.2 472.99L134.37 478.88L129.67 472.99L115.03 472.99L126.73 469.97L126.73 469.29L126.61 469.15L126.73 469.15L126.73 441.24L127.04 441.24L128.92 428.95L135.51 439.19L144.28 435.53L144.28 470.08L155.25 472.99L140.2 472.99Z" id="b16bpFPbZ6"></path><path d="M268.66 451.55L262.82 457.44L258.12 451.55L243.48 451.55L255.18 448.53L255.18 447.85L255.07 447.71L255.18 447.71L255.18 419.8L255.49 419.8L257.38 407.51L263.96 417.74L272.73 414.09L272.73 448.64L283.7 451.55L268.66 451.55Z" id="b4sqd9p1R"></path><path d="M355.43 405.72L349.6 411.61L344.9 405.72L330.26 405.72L341.96 402.7L341.96 402.03L341.84 401.88L341.96 401.88L341.96 373.97L342.26 373.97L344.15 361.68L350.73 371.92L359.51 368.26L359.51 402.81L370.47 405.72L355.43 405.72Z" id="aoSduJwtU"></path><path d="M414.89 488.11L409.06 494L404.36 488.11L389.72 488.11L401.42 485.09L401.42 484.41L401.3 484.27L401.42 484.26L401.42 456.36L401.73 456.36L403.61 444.07L410.19 454.3L418.97 450.65L418.97 485.2L429.94 488.11L414.89 488.11Z" id="brdGWrSBC"></path><path d="M466.57 395.72L460.74 401.61L456.04 395.72L441.4 395.72L453.1 392.7L453.1 392.03L452.98 391.88L453.1 391.88L453.1 363.97L453.4 363.97L455.29 351.68L461.87 361.92L470.65 358.26L470.65 392.81L481.61 395.72L466.57 395.72Z" id="b2GLLQVD19"></path><path d="M515.8 453.61L509.96 459.51L505.26 453.61L490.62 453.61L502.32 450.6L502.32 449.92L502.21 449.77L502.32 449.77L502.32 421.87L502.63 421.87L504.52 409.57L511.1 419.81L519.87 416.16L519.87 450.71L530.84 453.61L515.8 453.61Z" id="b2ZN7l3Xev"></path><path d="M102.11 424.64L102.79 419.89L99.18 419.89L101.38 404.54L102.94 411.12L104.3 401.61L106.9 412.51L108.45 401.61L110.54 410.39L111.38 404.54L115.03 419.89L111.98 419.89L113.81 427.57L107.96 427.57L109.47 416.97L106.13 416.97L107.96 424.64L102.11 424.64Z" id="e1pdUqenSK"></path><path d="M408.86 394.85L409.54 390.1L405.93 390.1L408.13 374.74L409.69 381.33L411.05 371.82L413.65 382.72L415.2 371.82L417.29 380.59L418.13 374.74L421.78 390.1L418.73 390.1L420.56 397.78L414.71 397.78L416.22 387.17L412.88 387.17L414.71 394.85L408.86 394.85Z" id="c18tsjZJni"></path><path d="M481.85 484.38L482.53 479.62L478.92 479.62L481.12 464.27L482.69 470.85L484.04 461.34L486.64 472.24L488.19 461.34L490.28 470.12L491.12 464.27L494.77 479.62L491.72 479.62L493.55 487.3L487.7 487.3L489.21 476.7L485.87 476.7L487.7 484.38L481.85 484.38Z" id="cfZLqGs3I"></path><path d="M351.37 451.98L352.05 447.23L348.45 447.23L350.64 431.87L352.21 438.46L353.57 428.95L356.16 439.84L357.72 428.95L359.81 437.72L360.64 431.87L364.3 447.23L361.24 447.23L363.07 454.91L357.22 454.91L358.74 444.3L355.39 444.3L357.22 451.98L351.37 451.98Z" id="eStEvMf4k"></path><path d="M112.13 505.87L112.81 501.12L109.2 501.12L111.4 485.76L112.97 492.34L114.32 482.84L116.92 493.73L118.47 482.84L120.56 491.61L121.4 485.76L125.05 501.12L122 501.12L123.83 508.8L117.98 508.8L119.49 498.19L116.15 498.19L117.98 505.87L112.13 505.87Z" id="aGGLSmg1M"></path><path d="M544.15 396.91L544.83 392.16L541.23 392.16L543.42 376.81L544.99 383.39L546.35 373.88L548.94 384.78L550.5 373.88L552.59 382.66L553.42 376.81L557.08 392.16L554.03 392.16L555.85 399.84L550 399.84L551.52 389.24L548.18 389.24L550 396.91L544.15 396.91Z" id="awwJoZalz"></path><path d="M190.62 454.12L191.3 449.37L187.7 449.37L189.89 434.01L191.46 440.59L192.82 431.09L195.41 441.98L196.97 431.09L199.06 439.86L199.89 434.01L203.55 449.37L200.49 449.37L202.32 457.05L196.47 457.05L197.99 446.44L194.65 446.44L196.47 454.12L190.62 454.12Z" id="afW9EJwxN"></path><path d="M240.84 386.7L241.52 381.95L237.91 381.95L240.11 366.59L241.67 373.17L243.03 363.67L245.63 374.56L247.18 363.67L249.27 372.44L250.11 366.59L253.76 381.95L250.71 381.95L252.54 389.62L246.69 389.62L248.2 379.02L244.86 379.02L246.69 386.7L240.84 386.7Z" id="auowZzfUb"></path></defs><g><g><g><use xlink:href="#d1IaccAkeQ" opacity="1" fill="#696969" fill-opacity="1"></use></g><g><use xlink:href="#cq74CINwS" opacity="1" fill="#2f4225" fill-opacity="1"></use><g><use xlink:href="#cq74CINwS" opacity="1" fill-opacity="0" stroke="#000000" stroke-width="1" stroke-opacity="1"></use></g></g><g><use xlink:href="#b1Ii07ZGRC" opacity="1" fill="#2f4225" fill-opacity="1"></use><g><use xlink:href="#b1Ii07ZGRC" opacity="1" fill-opacity="0" stroke="#000000" stroke-width="1" stroke-opacity="1"></use></g></g><g><use xlink:href="#a2GmgBR8Fo" opacity="1" fill="#2f4225" fill-opacity="1"></use><g><use xlink:href="#a2GmgBR8Fo" opacity="1" fill-opacity="0" stroke="#000000" stroke-width="1" stroke-opacity="1"></use></g></g><g><use xlink:href="#em2Hp5ctm" opacity="1" fill="#2f4225" fill-opacity="1"></use></g><g><use xlink:href="#a1tJ2teZYq" opacity="1" fill="#605916" fill-opacity="1"></use></g><g><use xlink:href="#f2E2j99nbX" opacity="1" fill="#4d3324" fill-opacity="1"></use></g><g><use xlink:href="#b16bpFPbZ6" opacity="1" fill="#4d3324" fill-opacity="1"></use></g><g><use xlink:href="#b4sqd9p1R" opacity="1" fill="#4d3324" fill-opacity="1"></use></g><g><use xlink:href="#aoSduJwtU" opacity="1" fill="#4d3324" fill-opacity="1"></use></g><g><use xlink:href="#brdGWrSBC" opacity="1" fill="#4d3324" fill-opacity="1"></use></g><g><use xlink:href="#b2GLLQVD19" opacity="1" fill="#4d3324" fill-opacity="1"></use></g><g><use xlink:href="#b2ZN7l3Xev" opacity="1" fill="#4d3324" fill-opacity="1"></use></g><g><use xlink:href="#e1pdUqenSK" opacity="1" fill="#356016" fill-opacity="1"></use></g><g><use xlink:href="#c18tsjZJni" opacity="1" fill="#356016" fill-opacity="1"></use></g><g><use xlink:href="#cfZLqGs3I" opacity="1" fill="#356016" fill-opacity="1"></use></g><g><use xlink:href="#eStEvMf4k" opacity="1" fill="#356016" fill-opacity="1"></use></g><g><use xlink:href="#aGGLSmg1M" opacity="1" fill="#356016" fill-opacity="1"></use></g><g><use xlink:href="#awwJoZalz" opacity="1" fill="#356016" fill-opacity="1"></use></g><g><use xlink:href="#afW9EJwxN" opacity="1" fill="#356016" fill-opacity="1"></use></g><g><use xlink:href="#auowZzfUb" opacity="1" fill="#356016" fill-opacity="1"></use></g></g></g></svg>